<svg width="46" height="40" viewBox="0 0 46 40" fill="none" xmlns="http://www.w3.org/2000/svg">
<g clip-path="url(#clip0_406_120)">
<path d="M20.5 33.2502H43C43.9686 33.2502 44.75 34.0316 44.75 35.0002C44.7499 35.9687 43.9685 36.7502 43 36.7502H20.5C19.5315 36.7502 18.7501 35.9687 18.75 35.0002C18.75 34.0316 19.5314 33.2502 20.5 33.2502ZM1.7627 3.76289C2.40347 3.12252 3.41685 3.08243 4.10449 3.64278L4.23828 3.76289L19.2354 18.7648C19.9189 19.4485 19.919 20.5519 19.2354 21.2355L4.2373 36.2355C3.55365 36.9189 2.44609 36.9188 1.7627 36.2355C1.07925 35.5519 1.0793 34.4485 1.7627 33.7648L14.9912 20.5305L15.5215 20.0002L14.9912 19.4699L1.7627 6.2375C1.07938 5.5539 1.07951 4.44658 1.7627 3.76289Z" stroke="#3294F8" stroke-width="1.5"/>
</g>
<defs>
<clipPath id="clip0_406_120">
<rect width="45" height="40" fill="white" transform="translate(0.5)"/>
</clipPath>
</defs>
</svg>
